<svg width="65" height="16" viewBox="0 0 65 16" fill="none" xmlns="http://www.w3.org/2000/svg">
<rect width="65" height="16" rx="8" fill="#B1FBE3"/>
<path d="M10.136 12H11.648L13.004 5.016H15.62L15.896 3.636H9.152L8.876 5.016H11.492L10.136 12ZM18.4626 5.964C17.8386 5.964 17.1186 6.312 16.7346 7.02L16.9266 6.084H15.4746L14.3226 12H15.7626L16.3266 9.084C16.5426 7.968 17.1306 7.368 18.0426 7.368C18.2946 7.368 18.5106 7.404 18.6906 7.536L19.5786 6.324C19.2306 6.084 18.8946 5.964 18.4626 5.964ZM24.4003 9.576C24.4963 9.252 24.6043 8.664 24.6043 8.256C24.6043 6.948 23.8963 5.964 22.3363 5.964C20.3323 5.964 18.9403 7.692 18.9403 9.744C18.9403 11.052 19.6363 12.12 21.3763 12.12C22.3363 12.12 23.1643 11.808 23.9563 11.088L23.0923 10.128C22.6003 10.596 22.0723 10.812 21.5083 10.812C20.6923 10.812 20.3203 10.44 20.3203 9.792C20.3203 9.72 20.3203 9.648 20.3323 9.576H24.4003ZM22.2283 7.164C22.9003 7.164 23.2963 7.548 23.2963 8.088C23.2963 8.22 23.2723 8.376 23.2123 8.532H20.5483C20.7403 7.908 21.2563 7.164 22.2283 7.164ZM26.6393 12H27.8273L31.3913 6.084H29.8073L27.5633 10.128L26.9273 6.084H25.3793L26.6393 12ZM35.742 6.084L35.61 6.732C35.322 6.288 34.71 5.964 34.002 5.964C32.094 5.964 30.906 7.872 30.906 9.852C30.906 11.196 31.59 12.12 32.946 12.12C33.546 12.12 34.218 11.928 34.734 11.316L34.602 12H36.042L37.194 6.084H35.742ZM33.414 10.788C32.67 10.788 32.334 10.404 32.334 9.72C32.334 8.484 33.018 7.272 34.242 7.272C35.046 7.272 35.382 7.752 35.382 8.436C35.382 9.648 34.65 10.788 33.414 10.788ZM37.9409 12H39.4289L40.1009 8.532H41.3849C43.2089 8.532 44.3489 7.86 44.6609 6.276C44.9609 4.728 44.2649 3.636 42.2729 3.636H39.5729L37.9409 12ZM40.3769 7.152L40.7849 5.016H41.9129C42.8849 5.016 43.3409 5.316 43.1969 6.084C43.0289 6.948 42.4049 7.152 41.4329 7.152H40.3769ZM49.16 6.084L49.028 6.732C48.74 6.288 48.128 5.964 47.42 5.964C45.512 5.964 44.324 7.872 44.324 9.852C44.324 11.196 45.008 12.12 46.364 12.12C46.964 12.12 47.636 11.928 48.152 11.316L48.02 12H49.46L50.612 6.084H49.16ZM46.832 10.788C46.088 10.788 45.752 10.404 45.752 9.72C45.752 8.484 46.436 7.272 47.66 7.272C48.464 7.272 48.8 7.752 48.8 8.436C48.8 9.648 48.068 10.788 46.832 10.788ZM55.8146 6.084L53.4746 10.032L52.8026 6.084H51.2426L52.4186 11.808L50.8586 14.448H52.4426L57.4226 6.084H55.8146Z" fill="black"/>
</svg>
