<svg width="88" height="15" viewBox="0 0 88 15" fill="none" xmlns="http://www.w3.org/2000/svg">
<path d="M8 11.9525L12.635 14.75L11.405 9.4775L15.5 5.93L10.1075 5.4725L8 0.5L5.8925 5.4725L0.5 5.93L4.595 9.4775L3.365 14.75L8 11.9525Z" fill="#FFD200"/>
<path d="M26 11.9525L30.635 14.75L29.405 9.4775L33.5 5.93L28.1075 5.4725L26 0.5L23.8925 5.4725L18.5 5.93L22.595 9.4775L21.365 14.75L26 11.9525Z" fill="#FFD200"/>
<path d="M44 11.9525L48.635 14.75L47.405 9.4775L51.5 5.93L46.1075 5.4725L44 0.5L41.8925 5.4725L36.5 5.93L40.595 9.4775L39.365 14.75L44 11.9525Z" fill="#FFD200"/>
<path d="M62 11.9525L66.635 14.75L65.405 9.4775L69.5 5.93L64.1075 5.4725L62 0.5L59.8925 5.4725L54.5 5.93L58.595 9.4775L57.365 14.75L62 11.9525Z" fill="#FFD200"/>
<path d="M87.5 5.93L82.1075 5.465L80 0.5L77.8925 5.4725L72.5 5.93L76.595 9.4775L75.365 14.75L80 11.9525L84.635 14.75L83.4125 9.4775L87.5 5.93ZM80 10.55V3.575L81.2825 6.605L84.5675 6.89L82.0775 9.05L82.8275 12.26L80 10.55Z" fill="#FFD200"/>
</svg>
